<svg xmlns="http://www.w3.org/2000/svg" xmlns:xlink="http://www.w3.org/1999/xlink" style="vertical-align:-2.38ex" width="6.657ex" height="6.009ex" viewBox="0 -1562.8 2866.1 2587.3"><defs><path id="a" stroke-width="1" d="M52 289q7 42 54 97t116 56q35 0 64-18t43-45q42 63 101 63 37 0 64-22t28-59q0-29-14-47t-27-22-23-4q-19 0-31 11t-12 29q0 46 50 63-11 13-40 13-13 0-19-2-38-16-56-66-60-221-60-258 0-28 16-40t35-12q37 0 73 33t49 81q3 10 6 11t16 2h4q15 0 15-8 0-1-2-11-16-57-62-101T333-11q-70 0-106 63-41-62-94-62h-6q-49 0-70 26T35 71q0 32 19 52t45 20q43 0 43-42 0-20-12-35t-23-20-13-5l-3-1q0-1 6-4t16-7 19-3q36 0 62 45 9 16 23 68t28 108 16 66q5 27 5 39 0 28-15 40t-34 12q-40 0-75-32t-49-82q-2-9-5-10t-16-2H58q-6 6-6 11z"/><path id="b" stroke-width="1" d="M84 250q0 122 82 200t194 89h17q16 0 42 1t50 0h99q15-8 15-20 0-9-13-19l-104-1q-111-1-137-6-49-12-87-36t-59-49-36-55-18-48-5-34v-2h444q15-8 15-20t-15-20H124v-2q0-21 10-51t33-65 64-64 97-41q27-6 138-7h104q13-10 13-20 0-12-15-20H446q-18 0-29-1-155 0-245 86-88 82-88 205z"/><path id="c" stroke-width="1" d="M208 74q0-24 46-28 18 0 18-11 0-1-2-13-3-14-6-18t-13-4h-12q-10 0-34 1t-64 1Q70 2 50 0h-8q-7 7-7 11 2 27 13 35h14q70 3 102 50 6 6 181 305t178 303q7 12 24 12h25q6-9 6-10l28-323q28-323 30-326 5-11 65-11 25 0 25-10 0-2-3-14-3-15-5-18t-14-4h-14q-11 0-39 1t-73 1q-94 0-123-2h-12q-6 6-6 9t2 18q4 13 6 16l4 3h20q54 3 64 17l-12 150H283l-34-58q-41-69-41-81zm308 186q0 11-12 156t-14 146l-27-43q-16-27-63-107l-90-152 103-1q103 0 103 1z"/><path id="d" stroke-width="1" d="M196 25Q84 109 84 250q0 122 82 200t194 89h15q14 0 38 1t47 0l87 167q3 9 16 9 7 0 12-4t6-9 2-7-78-156h63q15-8 15-20 0-9-13-19l-86-1-118-230h202q15-8 15-20t-15-20H346L247 38q37-22 81-31 27-6 138-7h104q13-10 13-20 0-12-15-20H447q-17 0-28-1-115 0-191 44-111-214-113-215-4-3-11-3t-12 3-6 8-2 7q0 7 5 14L196 25zm18 36l87 169H124v-2q0-32 23-81t67-86zm107 209l119 230q-87-1-111-6-49-12-87-36t-59-49-36-55-18-48-5-34v-2h197z"/></defs><g fill="currentColor" stroke="currentColor" stroke-width="0"><g transform="matrix(1 0 0 -1 153 -658)"><use xlink:href="#a"/><use x="850" xlink:href="#b"/><use x="1795" xlink:href="#c"/></g><g transform="matrix(1 0 0 -1 153 742)"><use xlink:href="#a"/><use x="850" xlink:href="#d"/><use x="1795" xlink:href="#c"/></g></g></svg>